<svg height="512pt" viewBox="0 0 512 512" width="512pt" xmlns="http://www.w3.org/2000/svg"><path d="m512 256c0 141.386719-114.613281 256-256 256s-256-114.613281-256-256 114.613281-256 256-256 256 114.613281 256 256zm0 0" fill="#fd3019"/><path d="m512 256c0-.117188-.003906-.230469-.003906-.347656l-155.527344-155.527344-210.171875 60.875 9.234375 8.988281v3.332031l-24.414062 227.4375 110.855468 110.855469c4.644532.25 9.320313.386719 14.027344.386719 141.386719 0 256-114.613281 256-256zm0 0" fill="#e71e15"/><path d="m353.421875 411.875h-194.84375c-21.824219 0-39.578125-17.753906-39.578125-39.578125v-159.527344c0-21.824219 17.753906-39.578125 39.578125-39.578125h194.84375c21.824219 0 39.578125 17.753906 39.578125 39.578125v159.527344c0 21.824219-17.753906 39.578125-39.578125 39.578125zm0 0" fill="#c8c6ce"/><path d="m353.421875 173.191406h-97.421875v238.683594h97.421875c21.824219 0 39.578125-17.753906 39.578125-39.578125v-159.527344c0-21.824219-17.753906-39.578125-39.578125-39.578125zm0 0" fill="#aeadb4"/><path d="m280.964844 338.808594h-108.992188v-54.800782h108.992188zm0 0" fill="#fedb41"/><path d="m279.136719 393.609375h-107.164063v-42.621094h107.164063zm0 0" fill="#fcbf27"/><path d="m268.785156 357.074219h-113.253906v-36.53125h113.253906zm0 0" fill="#fe9922"/><path d="m356.46875 191.457031h-200.9375v-91.332031h200.933594v91.332031zm0 0" fill="#e5e5e5"/><path d="m356.46875 191.457031h-100.46875v-91.332031h100.46875zm0 0" fill="#c8c6ce"/><path d="m145.292969 142.761719 220.425781-12.1875 1.007812 18.242187-220.425781 12.183594zm0 0" fill="#c8c6ce"/><path d="m256 154.9375 110.714844-6.117188-1.011719-18.238281-109.703125 6.0625zm0 0" fill="#aeadb4"/><path d="m353.421875 191.457031c11.75 0 21.3125 9.5625 21.3125 21.3125v159.527344c0 11.753906-9.5625 21.3125-21.3125 21.3125h-194.84375c-11.75 0-21.3125-9.558594-21.3125-21.3125v-159.527344c0-11.75 9.5625-21.3125 21.3125-21.3125zm0-18.265625h-194.84375c-21.824219 0-39.578125 17.753906-39.578125 39.578125v159.527344c0 21.824219 17.753906 39.578125 39.578125 39.578125h194.84375c21.824219 0 39.578125-17.753906 39.578125-39.578125v-159.527344c0-21.824219-17.753906-39.578125-39.578125-39.578125zm0 0" fill="#e5e5e5"/><path d="m353.421875 173.191406h-97.421875v18.265625h97.421875c11.75 0 21.3125 9.5625 21.3125 21.3125v159.527344c0 11.753906-9.5625 21.3125-21.3125 21.3125h-97.421875v18.265625h97.421875c21.824219 0 39.578125-17.753906 39.578125-39.578125v-159.527344c0-21.824219-17.753906-39.578125-39.578125-39.578125zm0 0" fill="#c8c6ce"/><path d="m256 339.417969c-29.546875 0-53.582031-24.035157-53.582031-53.582031 0-29.546876 24.035156-53.582032 53.582031-53.582032s53.582031 24.035156 53.582031 53.582032c0 29.546874-24.035156 53.582031-53.582031 53.582031zm0 0" fill="#fcbf27"/><path d="m256 232.253906v107.164063c29.546875 0 53.582031-24.039063 53.582031-53.582031 0-29.546876-24.035156-53.582032-53.582031-53.582032zm0 0" fill="#fea832"/><path d="m302.882812 393.609375c-29.542968 0-53.582031-24.039063-53.582031-53.582031 0-29.546875 24.039063-53.582032 53.582031-53.582032 29.546876 0 53.582032 24.035157 53.582032 53.582032 0 29.542968-24.035156 53.582031-53.582032 53.582031zm0 0" fill="#fedb41"/><path d="m302.882812 286.445312v107.164063c29.546876 0 53.582032-24.039063 53.582032-53.582031 0-29.546875-24.035156-53.582032-53.582032-53.582032zm0 0" fill="#fcbf27"/><path d="m312.53125 333.140625c-.75-.476563-1.570312-.917969-2.457031-1.328125-.75-.371094-1.59375-.71875-2.53125-1.042969-.941407-.324219-1.886719-.570312-2.839844-.742187v4.589844c.304687.070312.628906.164062.972656.28125.339844.121093.695313.230468 1.074219.332031 1.671875.511719 3.179688 1.074219 4.527344 1.683593 1.347656.613282 2.5 1.335938 3.457031 2.167969.953125.835938 1.6875 1.847657 2.199219 3.035157.511718 1.191406.769531 2.636718.769531 4.335937 0 2.007813-.351563 3.71875-1.050781 5.128906-.699219 1.410157-1.621094 2.566407-2.761719 3.46875-1.144531.898438-2.449219 1.582031-3.917969 2.039063-1.464844.460937-2.984375.738281-4.554687.84375v6.171875h-4.09375v-6.277344c-2.351563-.203125-4.691407-.660156-7.011719-1.375s-4.398438-1.613281-6.242188-2.703125l4.296876-8.722656c.921874.578125 1.914062 1.121094 2.972656 1.628906.886718.445312 1.917968.878906 3.09375 1.304688 1.175781.425781 2.378906.722656 3.609375.890624v-4.488281c-1.058594-.273437-2.117188-.59375-3.175781-.96875-1.601563-.542969-2.984376-1.128906-4.144532-1.761719-1.160156-.628906-2.117187-1.34375-2.867187-2.140624-.75-.800782-1.304688-1.710938-1.660157-2.730469-.359374-1.019531-.539062-2.191407-.539062-3.519531 0-1.835938.308594-3.460938.921875-4.871094s1.449219-2.628906 2.507813-3.648438c1.058593-1.019531 2.292968-1.835937 3.710937-2.445312 1.417969-.613282 2.925781-1.003906 4.527344-1.175782v-5.152343h4.097656v5.203125c1.125.136718 2.214844.339844 3.273437.613281 1.058594.273437 2.074219.585937 3.042969.945313.972657.355468 1.886719.730468 2.738281 1.121093.855469.390625 1.640626.757813 2.355469 1.097657zm-12.539062-1.53125c0 .511719.171874.925781.511718 1.25.34375.324219.851563.621094 1.535156.894531v-3.878906c-1.363281.171875-2.046874.75-2.046874 1.734375zm6.960937 15.8125c0-.476563-.207031-.890625-.613281-1.25-.410156-.355469-.957032-.667969-1.640625-.941406v3.773437c.820312-.066406 1.398437-.238281 1.742187-.511718.339844-.269532.511719-.628907.511719-1.070313zm0 0" fill="#fe9922"/><path d="m314.730469 339.082031c-.953125-.832031-2.105469-1.554687-3.453125-2.167969-1.347656-.609374-2.859375-1.171874-4.53125-1.683593-.375-.101563-.730469-.210938-1.074219-.332031-.339844-.117188-.664063-.210938-.972656-.28125v-4.589844c.957031.171875 1.902343.417968 2.839843.742187.941407.324219 1.785157.671875 2.535157 1.042969.886719.410156 1.707031.851562 2.457031 1.328125l4.296875-8.214844c-.714844-.335937-1.5-.703125-2.351563-1.097656-.855468-.390625-1.765624-.761719-2.738281-1.121094-.972656-.355469-1.988281-.671875-3.046875-.941406-1.054687-.273437-2.148437-.476563-3.273437-.613281v-5.203125h-2.53125v48.152343h2.53125v-6.171874c1.570312-.101563 3.089843-.382813 4.554687-.839844 1.464844-.460938 2.773438-1.140625 3.914063-2.042969 1.144531-.898437 2.066406-2.054687 2.765625-3.46875.699218-1.410156 1.046875-3.117187 1.046875-5.125 0-1.699219-.253907-3.144531-.765625-4.335937-.511719-1.1875-1.246094-2.199219-2.203125-3.035157zm-8.289063 9.410157c-.339844.273437-.921875.445312-1.742187.511718v-3.773437c.683593.269531 1.230469.585937 1.640625.941406.40625.359375.613281.773437.613281 1.25 0 .441406-.171875.800781-.511719 1.070313zm0 0" fill="#fe8722"/><path d="m302.882812 393.609375c-29.542968 0-53.582031-24.039063-53.582031-53.582031 0-29.546875 24.039063-53.582032 53.582031-53.582032 29.546876 0 53.582032 24.035157 53.582032 53.582032 0 29.542968-24.035156 53.582031-53.582032 53.582031zm0 0" fill="#fedb41"/><path d="m302.882812 286.445312v107.164063c29.546876 0 53.582032-24.039063 53.582032-53.582031 0-29.546875-24.035156-53.582032-53.582032-53.582032zm0 0" fill="#fcbf27"/><path d="m312.53125 333.140625c-.75-.476563-1.570312-.917969-2.457031-1.328125-.75-.371094-1.59375-.71875-2.53125-1.042969-.941407-.324219-1.886719-.570312-2.839844-.742187v4.589844c.304687.070312.628906.164062.972656.28125.339844.121093.695313.230468 1.074219.332031 1.671875.511719 3.179688 1.074219 4.527344 1.683593 1.347656.613282 2.5 1.335938 3.457031 2.167969.953125.835938 1.6875 1.847657 2.199219 3.035157.511718 1.191406.769531 2.636718.769531 4.335937 0 2.007813-.351563 3.71875-1.050781 5.128906-.699219 1.410157-1.621094 2.566407-2.761719 3.46875-1.144531.898438-2.449219 1.582031-3.917969 2.039063-1.464844.460937-2.984375.738281-4.554687.84375v6.171875h-4.09375v-6.277344c-2.351563-.203125-4.691407-.660156-7.011719-1.375s-4.398438-1.613281-6.242188-2.703125l4.296876-8.722656c.921874.578125 1.914062 1.121094 2.972656 1.628906.886718.445312 1.917968.878906 3.09375 1.304688 1.175781.425781 2.378906.722656 3.609375.890624v-4.488281c-1.058594-.273437-2.117188-.59375-3.175781-.96875-1.601563-.542969-2.984376-1.128906-4.144532-1.761719-1.160156-.628906-2.117187-1.34375-2.867187-2.140624-.75-.800782-1.304688-1.710938-1.660157-2.730469-.359374-1.019531-.539062-2.191407-.539062-3.519531 0-1.835938.308594-3.460938.921875-4.871094s1.449219-2.628906 2.507813-3.648438c1.058593-1.019531 2.292968-1.835937 3.710937-2.445312 1.417969-.613282 2.925781-1.003906 4.527344-1.175782v-5.152343h4.097656v5.203125c1.125.136718 2.214844.339844 3.273437.613281 1.058594.273437 2.074219.585937 3.042969.945313.972657.355468 1.886719.730468 2.738281 1.121093.855469.390625 1.640626.757813 2.355469 1.097657zm-12.539062-1.53125c0 .511719.171874.925781.511718 1.25.34375.324219.851563.621094 1.535156.894531v-3.878906c-1.363281.171875-2.046874.75-2.046874 1.734375zm6.960937 15.8125c0-.476563-.207031-.890625-.613281-1.25-.410156-.355469-.957032-.667969-1.640625-.941406v3.773437c.820312-.066406 1.398437-.238281 1.742187-.511718.339844-.269532.511719-.628907.511719-1.070313zm0 0" fill="#fe9922"/><path d="m314.730469 339.082031c-.953125-.832031-2.105469-1.554687-3.453125-2.167969-1.347656-.609374-2.859375-1.171874-4.53125-1.683593-.375-.101563-.730469-.210938-1.074219-.332031-.339844-.117188-.664063-.210938-.972656-.28125v-4.589844c.957031.171875 1.902343.417968 2.839843.742187.941407.324219 1.785157.671875 2.535157 1.042969.886719.410156 1.707031.851562 2.457031 1.328125l4.296875-8.214844c-.714844-.335937-1.5-.703125-2.351563-1.097656-.855468-.390625-1.765624-.761719-2.738281-1.121094-.972656-.355469-1.988281-.671875-3.046875-.941406-1.054687-.273437-2.148437-.476563-3.273437-.613281v-5.203125h-2.53125v48.152343h2.53125v-6.171874c1.570312-.101563 3.089843-.382813 4.554687-.839844 1.464844-.460938 2.773438-1.140625 3.914063-2.042969 1.144531-.898437 2.066406-2.054687 2.765625-3.46875.699218-1.410156 1.046875-3.117187 1.046875-5.125 0-1.699219-.253907-3.144531-.765625-4.335937-.511719-1.1875-1.246094-2.199219-2.203125-3.035157zm-8.289063 9.410157c-.339844.273437-.921875.445312-1.742187.511718v-3.773437c.683593.269531 1.230469.585937 1.640625.941406.40625.359375.613281.773437.613281 1.25 0 .441406-.171875.800781-.511719 1.070313zm0 0" fill="#fe8722"/></svg>